<mxfile host="Electron" modified="2024-03-07T12:19:25.865Z" agent="Mozilla/5.0 (Windows NT 10.0; Win64; x64) AppleWebKit/537.36 (KHTML, like Gecko) draw.io/23.1.5 Chrome/120.0.6099.109 Electron/28.1.0 Safari/537.36" etag="JmASjxcTTsGKZF2EXNmu" version="23.1.5" type="device">
  <diagram id="o_6YjUX1Xd7ecz3hc1pc" name="Page-1">
    <mxGraphModel dx="2390" dy="1407" grid="1" gridSize="10" guides="1" tooltips="1" connect="1" arrows="1" fold="1" page="1" pageScale="1" pageWidth="1920" pageHeight="1200" math="0" shadow="0">
      <root>
        <mxCell id="0" />
        <mxCell id="1" parent="0" />
        <mxCell id="EU4dK8pHDv4Qe2f_EApd-55" value="" style="rounded=0;whiteSpace=wrap;html=1;fontSize=25;fillColor=#f5f5f5;fontColor=#333333;strokeColor=#666666;direction=east;strokeWidth=2;fontStyle=1" parent="1" vertex="1">
          <mxGeometry x="50" y="107" width="1810" height="987" as="geometry" />
        </mxCell>
        <mxCell id="EU4dK8pHDv4Qe2f_EApd-52" value="" style="rounded=0;whiteSpace=wrap;html=1;fontSize=12;fontColor=default;strokeWidth=2;" parent="1" vertex="1">
          <mxGeometry x="70" y="727" width="1770" height="350" as="geometry" />
        </mxCell>
        <mxCell id="EU4dK8pHDv4Qe2f_EApd-51" value="" style="rounded=0;whiteSpace=wrap;html=1;fontSize=12;fontColor=default;strokeWidth=2;" parent="1" vertex="1">
          <mxGeometry x="70" y="467" width="1770" height="265" as="geometry" />
        </mxCell>
        <mxCell id="EU4dK8pHDv4Qe2f_EApd-50" value="" style="rounded=0;whiteSpace=wrap;html=1;fontSize=12;fontColor=default;strokeWidth=2;" parent="1" vertex="1">
          <mxGeometry x="70" y="157" width="1770" height="250" as="geometry" />
        </mxCell>
        <mxCell id="Vr7UqcTTEBcj6Jo24SEG-156" style="edgeStyle=orthogonalEdgeStyle;rounded=0;orthogonalLoop=1;jettySize=auto;html=1;exitX=1;exitY=0.5;exitDx=0;exitDy=0;entryX=0.5;entryY=0;entryDx=0;entryDy=0;entryPerimeter=0;fontSize=12;strokeColor=#00CC00;fontColor=#00CC00;strokeWidth=2;fontStyle=1;" parent="1" source="Vr7UqcTTEBcj6Jo24SEG-145" target="Vr7UqcTTEBcj6Jo24SEG-37" edge="1">
          <mxGeometry relative="1" as="geometry">
            <Array as="points">
              <mxPoint x="1670" y="340" />
              <mxPoint x="1743" y="340" />
            </Array>
          </mxGeometry>
        </mxCell>
        <mxCell id="EU4dK8pHDv4Qe2f_EApd-1" value="OB.1.1" style="text;html=1;align=center;verticalAlign=middle;resizable=0;points=[];autosize=1;strokeColor=none;fillColor=none;fontStyle=1;fontSize=26;strokeWidth=2;" parent="1" vertex="1">
          <mxGeometry x="905" y="112" width="110" height="40" as="geometry" />
        </mxCell>
        <mxCell id="EU4dK8pHDv4Qe2f_EApd-2" value="&lt;table style=&quot;border-collapse:&lt;br/&gt; collapse;width:310pt&quot; width=&quot;413&quot; cellspacing=&quot;0&quot; cellpadding=&quot;0&quot; border=&quot;0&quot;&gt;&lt;tbody&gt;&lt;tr style=&quot;height:43.2pt&quot; height=&quot;58&quot;&gt;&lt;td style=&quot;height:43.2pt;width:310pt&quot; width=&quot;413&quot; class=&quot;xl65&quot; height=&quot;58&quot;&gt;INITIATING AN ONLINE APPLICATION&lt;/td&gt;&lt;/tr&gt;&lt;/tbody&gt;&lt;/table&gt;" style="text;html=1;align=center;verticalAlign=middle;resizable=0;points=[];autosize=1;strokeColor=none;fillColor=none;fontStyle=1;fontSize=26;strokeWidth=2;" parent="1" vertex="1">
          <mxGeometry x="1350" y="97" width="490" height="70" as="geometry" />
        </mxCell>
        <mxCell id="Vr7UqcTTEBcj6Jo24SEG-110" style="edgeStyle=orthogonalEdgeStyle;rounded=0;orthogonalLoop=1;jettySize=auto;html=1;exitX=1;exitY=0.5;exitDx=0;exitDy=0;entryX=0;entryY=0.5;entryDx=0;entryDy=0;fontSize=12;strokeColor=#00CC00;fontColor=#00CC00;strokeWidth=2;fontStyle=1;" parent="1" source="EU4dK8pHDv4Qe2f_EApd-3" target="EU4dK8pHDv4Qe2f_EApd-4" edge="1">
          <mxGeometry relative="1" as="geometry" />
        </mxCell>
        <mxCell id="EU4dK8pHDv4Qe2f_EApd-3" value="VISIT DID PORTAL" style="rounded=0;whiteSpace=wrap;html=1;strokeWidth=2;fontStyle=1" parent="1" vertex="1">
          <mxGeometry x="150" y="257" width="120" height="40" as="geometry" />
        </mxCell>
        <mxCell id="Vr7UqcTTEBcj6Jo24SEG-108" style="edgeStyle=orthogonalEdgeStyle;rounded=0;orthogonalLoop=1;jettySize=auto;html=1;exitX=0.5;exitY=1;exitDx=0;exitDy=0;entryX=0.5;entryY=0;entryDx=0;entryDy=0;fontSize=12;strokeColor=#00CC00;fontColor=#00CC00;strokeWidth=2;fontStyle=1;" parent="1" source="EU4dK8pHDv4Qe2f_EApd-4" target="EU4dK8pHDv4Qe2f_EApd-9" edge="1">
          <mxGeometry relative="1" as="geometry" />
        </mxCell>
        <mxCell id="EU4dK8pHDv4Qe2f_EApd-4" value="CLICK LOGIN" style="rounded=0;whiteSpace=wrap;html=1;fontSize=12;strokeWidth=2;fontStyle=1" parent="1" vertex="1">
          <mxGeometry x="315" y="178" width="120" height="32" as="geometry" />
        </mxCell>
        <mxCell id="Vr7UqcTTEBcj6Jo24SEG-123" style="edgeStyle=orthogonalEdgeStyle;rounded=0;orthogonalLoop=1;jettySize=auto;html=1;exitX=1;exitY=0.5;exitDx=0;exitDy=0;entryX=0;entryY=0.5;entryDx=0;entryDy=0;fontSize=12;strokeColor=#00CC00;fontColor=#00CC00;strokeWidth=2;fontStyle=1;" parent="1" source="EU4dK8pHDv4Qe2f_EApd-8" target="Vr7UqcTTEBcj6Jo24SEG-122" edge="1">
          <mxGeometry relative="1" as="geometry" />
        </mxCell>
        <mxCell id="EU4dK8pHDv4Qe2f_EApd-8" value="IF &lt;br&gt;PASS. AUTH.&lt;br&gt;SUCCESS" style="rounded=0;whiteSpace=wrap;html=1;fontSize=12;strokeWidth=2;fontStyle=1;shape=rhombus;perimeter=rhombusPerimeter;" parent="1" vertex="1">
          <mxGeometry x="310" y="830.36" width="120" height="60" as="geometry" />
        </mxCell>
        <mxCell id="EU4dK8pHDv4Qe2f_EApd-30" style="edgeStyle=orthogonalEdgeStyle;rounded=0;orthogonalLoop=1;jettySize=auto;html=1;exitX=0.46;exitY=0.988;exitDx=0;exitDy=0;entryX=0.5;entryY=0;entryDx=0;entryDy=0;fontSize=12;fontColor=#00CC00;strokeColor=#00CC00;strokeWidth=2;fontStyle=1;exitPerimeter=0;" parent="1" source="Vr7UqcTTEBcj6Jo24SEG-109" target="EU4dK8pHDv4Qe2f_EApd-8" edge="1">
          <mxGeometry relative="1" as="geometry">
            <Array as="points">
              <mxPoint x="370" y="357" />
              <mxPoint x="370" y="357" />
            </Array>
          </mxGeometry>
        </mxCell>
        <mxCell id="EU4dK8pHDv4Qe2f_EApd-9" value="ENTER &lt;br&gt;EMAIL AND PASSWORD" style="rounded=0;whiteSpace=wrap;html=1;fontSize=12;strokeWidth=2;fontStyle=1;shape=parallelogram;fixedSize=1;perimeter=parallelogramPerimeter;" parent="1" vertex="1">
          <mxGeometry x="310" y="232" width="130" height="45" as="geometry" />
        </mxCell>
        <mxCell id="EU4dK8pHDv4Qe2f_EApd-41" style="edgeStyle=orthogonalEdgeStyle;rounded=0;orthogonalLoop=1;jettySize=auto;html=1;exitX=1;exitY=0.5;exitDx=0;exitDy=0;entryX=0.5;entryY=1;entryDx=0;entryDy=0;fontSize=12;fontColor=#00CC00;strokeColor=#00CC00;strokeWidth=2;fontStyle=1;exitPerimeter=0;" parent="1" source="Vr7UqcTTEBcj6Jo24SEG-118" target="EU4dK8pHDv4Qe2f_EApd-14" edge="1">
          <mxGeometry relative="1" as="geometry">
            <mxPoint x="790" y="830.3600000000001" as="sourcePoint" />
          </mxGeometry>
        </mxCell>
        <mxCell id="Vr7UqcTTEBcj6Jo24SEG-125" style="edgeStyle=orthogonalEdgeStyle;rounded=0;orthogonalLoop=1;jettySize=auto;html=1;exitX=1;exitY=0.5;exitDx=0;exitDy=0;entryX=0;entryY=0.5;entryDx=0;entryDy=0;fontSize=12;strokeColor=#00CC00;fontColor=#00CC00;strokeWidth=2;fontStyle=1;" parent="1" source="EU4dK8pHDv4Qe2f_EApd-14" target="EU4dK8pHDv4Qe2f_EApd-16" edge="1">
          <mxGeometry relative="1" as="geometry" />
        </mxCell>
        <mxCell id="EU4dK8pHDv4Qe2f_EApd-14" value="&lt;i&gt;&lt;u&gt;HOME PAGE:&lt;/u&gt;&lt;/i&gt;&lt;br&gt;CLICK START APPLICATION" style="rounded=0;whiteSpace=wrap;html=1;fontSize=12;strokeWidth=2;fontStyle=1" parent="1" vertex="1">
          <mxGeometry x="640" y="277" width="120" height="60" as="geometry" />
        </mxCell>
        <mxCell id="Vr7UqcTTEBcj6Jo24SEG-130" style="edgeStyle=orthogonalEdgeStyle;rounded=0;orthogonalLoop=1;jettySize=auto;html=1;exitX=0.5;exitY=1;exitDx=0;exitDy=0;fontSize=12;strokeColor=#00CC00;fontColor=#00CC00;strokeWidth=2;fontStyle=1;" parent="1" source="EU4dK8pHDv4Qe2f_EApd-16" target="Vr7UqcTTEBcj6Jo24SEG-126" edge="1">
          <mxGeometry relative="1" as="geometry" />
        </mxCell>
        <mxCell id="EU4dK8pHDv4Qe2f_EApd-16" value="&lt;u&gt;SELECT TYPE OF APPLICATION&lt;/u&gt;:&lt;br&gt;A)SELF&lt;br&gt;B) PARENT OR GUARDIAN&lt;br&gt;C) WITH INTRODUCER" style="rounded=0;whiteSpace=wrap;html=1;fontSize=12;align=center;strokeWidth=2;fontStyle=1;shape=parallelogram;perimeter=parallelogramPerimeter;fixedSize=1;" parent="1" vertex="1">
          <mxGeometry x="820" y="262" width="190" height="90" as="geometry" />
        </mxCell>
        <mxCell id="HW9NuAKg7_qNR3H8BCQF-18" style="edgeStyle=orthogonalEdgeStyle;rounded=0;orthogonalLoop=1;jettySize=auto;html=1;exitX=1;exitY=0.5;exitDx=0;exitDy=0;exitPerimeter=0;entryX=0.5;entryY=1;entryDx=0;entryDy=0;fontSize=12;strokeColor=#00CC00;fontColor=#00CC00;strokeWidth=2;fontStyle=1;" parent="1" source="EU4dK8pHDv4Qe2f_EApd-19" target="Vr7UqcTTEBcj6Jo24SEG-137" edge="1">
          <mxGeometry relative="1" as="geometry" />
        </mxCell>
        <mxCell id="EU4dK8pHDv4Qe2f_EApd-19" value="STORE RID &amp;amp; APPLICATION INFORMATION" style="rounded=0;whiteSpace=wrap;html=1;fontSize=12;strokeWidth=2;fontStyle=1;shape=label;boundedLbl=1;backgroundOutline=1;size=15;" parent="1" vertex="1">
          <mxGeometry x="838.5" y="890" width="155" height="60" as="geometry" />
        </mxCell>
        <mxCell id="EU4dK8pHDv4Qe2f_EApd-23" value="APPLICANT" style="text;html=1;align=center;verticalAlign=middle;resizable=0;points=[];autosize=1;strokeColor=none;fillColor=none;fontSize=19;fontStyle=1;strokeWidth=2;horizontal=0;" parent="1" vertex="1">
          <mxGeometry x="60" y="192" width="50" height="120" as="geometry" />
        </mxCell>
        <mxCell id="EU4dK8pHDv4Qe2f_EApd-54" value="B" style="ellipse;whiteSpace=wrap;html=1;aspect=fixed;fontSize=25;fontColor=default;strokeWidth=2;fontStyle=1" parent="1" vertex="1">
          <mxGeometry x="67" y="115" width="35" height="35" as="geometry" />
        </mxCell>
        <mxCell id="HW9NuAKg7_qNR3H8BCQF-2" value="" style="edgeStyle=orthogonalEdgeStyle;rounded=0;orthogonalLoop=1;jettySize=auto;html=1;fontSize=12;strokeColor=#00CC00;fontColor=#00CC00;strokeWidth=2;fontStyle=1;" parent="1" source="HW9NuAKg7_qNR3H8BCQF-1" target="EU4dK8pHDv4Qe2f_EApd-3" edge="1">
          <mxGeometry relative="1" as="geometry" />
        </mxCell>
        <mxCell id="HW9NuAKg7_qNR3H8BCQF-1" value="&lt;b&gt;START&lt;br&gt;(ONLINE)&lt;br&gt;&lt;/b&gt;" style="strokeWidth=2;html=1;shape=mxgraph.flowchart.terminator;whiteSpace=wrap;fillColor=#d5e8d4;strokeColor=#82b366;" parent="1" vertex="1">
          <mxGeometry x="160" y="177" width="100" height="40" as="geometry" />
        </mxCell>
        <mxCell id="Vr7UqcTTEBcj6Jo24SEG-139" style="edgeStyle=orthogonalEdgeStyle;rounded=0;orthogonalLoop=1;jettySize=auto;html=1;exitX=0.5;exitY=0;exitDx=0;exitDy=0;exitPerimeter=0;entryX=0.5;entryY=1;entryDx=0;entryDy=0;fontSize=12;strokeColor=#00CC00;fontColor=#00CC00;strokeWidth=2;fontStyle=1;" parent="1" source="HW9NuAKg7_qNR3H8BCQF-7" target="Vr7UqcTTEBcj6Jo24SEG-138" edge="1">
          <mxGeometry relative="1" as="geometry" />
        </mxCell>
        <mxCell id="HW9NuAKg7_qNR3H8BCQF-7" value="&lt;span style=&quot;border-color: var(--border-color);&quot;&gt;&lt;b&gt;TERMINATE PROCESS:&lt;br&gt;&lt;/b&gt;&lt;/span&gt;WITH ERROR MESSAGE" style="strokeWidth=2;html=1;shape=mxgraph.flowchart.terminator;whiteSpace=wrap;fillColor=#f8cecc;strokeColor=#b85450;" parent="1" vertex="1">
          <mxGeometry x="1180" y="992.0000000000002" width="160" height="60" as="geometry" />
        </mxCell>
        <mxCell id="Vr7UqcTTEBcj6Jo24SEG-27" value="PUBLIC NETWORK&lt;br style=&quot;border-color: var(--border-color);&quot;&gt;SYSTEMS (CLIENT)" style="text;html=1;align=center;verticalAlign=middle;resizable=0;points=[];autosize=1;strokeColor=none;fillColor=none;fontStyle=1;fontSize=19;strokeWidth=2;horizontal=0;" parent="1" vertex="1">
          <mxGeometry x="75" y="497" width="70" height="190" as="geometry" />
        </mxCell>
        <mxCell id="Vr7UqcTTEBcj6Jo24SEG-37" value="&lt;b&gt;END&lt;/b&gt;" style="strokeWidth=2;html=1;shape=mxgraph.flowchart.terminator;whiteSpace=wrap;fillColor=#f8cecc;strokeColor=#b85450;" parent="1" vertex="1">
          <mxGeometry x="1690" y="361" width="105" height="40" as="geometry" />
        </mxCell>
        <mxCell id="Vr7UqcTTEBcj6Jo24SEG-39" value="KR" style="ellipse;whiteSpace=wrap;html=1;fillColor=#dae8fc;strokeColor=#6c8ebf;gradientColor=#7ea6e0;fontStyle=1" parent="1" vertex="1">
          <mxGeometry x="1171" y="976" width="30" height="26" as="geometry" />
        </mxCell>
        <mxCell id="Vr7UqcTTEBcj6Jo24SEG-47" value="PRIVATE NETWORK&lt;br style=&quot;border-color: var(--border-color);&quot;&gt;SYSTEMS (SERVER)" style="text;html=1;align=center;verticalAlign=middle;resizable=0;points=[];autosize=1;strokeColor=none;fillColor=none;fontStyle=1;fontSize=19;strokeWidth=2;horizontal=0;" parent="1" vertex="1">
          <mxGeometry x="70" y="807" width="80" height="240" as="geometry" />
        </mxCell>
        <mxCell id="Vr7UqcTTEBcj6Jo24SEG-55" value="&lt;font style=&quot;font-size: 14px;&quot;&gt;PUBLIC NETWORK&lt;/font&gt;" style="swimlane;whiteSpace=wrap;html=1;" parent="1" vertex="1">
          <mxGeometry x="1860" y="470" width="200" height="167" as="geometry" />
        </mxCell>
        <mxCell id="Vr7UqcTTEBcj6Jo24SEG-56" value="DNS SERVERS" style="text;html=1;strokeColor=none;fillColor=none;align=center;verticalAlign=middle;whiteSpace=wrap;rounded=0;fontSize=14;" parent="Vr7UqcTTEBcj6Jo24SEG-55" vertex="1">
          <mxGeometry y="27" width="200" height="28" as="geometry" />
        </mxCell>
        <mxCell id="Vr7UqcTTEBcj6Jo24SEG-57" value="FTP SERVERS" style="text;html=1;strokeColor=none;fillColor=none;align=center;verticalAlign=middle;whiteSpace=wrap;rounded=0;fontSize=14;" parent="Vr7UqcTTEBcj6Jo24SEG-55" vertex="1">
          <mxGeometry y="55" width="200" height="28" as="geometry" />
        </mxCell>
        <mxCell id="Vr7UqcTTEBcj6Jo24SEG-58" value="MAIL SERVERS" style="text;html=1;strokeColor=none;fillColor=none;align=center;verticalAlign=middle;whiteSpace=wrap;rounded=0;fontSize=14;" parent="Vr7UqcTTEBcj6Jo24SEG-55" vertex="1">
          <mxGeometry y="83" width="200" height="28" as="geometry" />
        </mxCell>
        <mxCell id="Vr7UqcTTEBcj6Jo24SEG-59" value="PROXY SERVERS" style="text;html=1;strokeColor=none;fillColor=none;align=center;verticalAlign=middle;whiteSpace=wrap;rounded=0;fontSize=14;" parent="Vr7UqcTTEBcj6Jo24SEG-55" vertex="1">
          <mxGeometry y="111" width="200" height="28" as="geometry" />
        </mxCell>
        <mxCell id="Vr7UqcTTEBcj6Jo24SEG-60" value="WEB SERVERS" style="text;html=1;strokeColor=none;fillColor=none;align=center;verticalAlign=middle;whiteSpace=wrap;rounded=0;fontSize=14;" parent="Vr7UqcTTEBcj6Jo24SEG-55" vertex="1">
          <mxGeometry y="139" width="200" height="28" as="geometry" />
        </mxCell>
        <mxCell id="Vr7UqcTTEBcj6Jo24SEG-76" value="&lt;font style=&quot;font-size: 14px;&quot;&gt;LEGEND&lt;/font&gt;" style="swimlane;whiteSpace=wrap;html=1;" parent="1" vertex="1">
          <mxGeometry x="1860" y="161" width="200" height="230" as="geometry" />
        </mxCell>
        <mxCell id="Vr7UqcTTEBcj6Jo24SEG-77" value="KM" style="ellipse;whiteSpace=wrap;html=1;fillColor=#dae8fc;strokeColor=#6c8ebf;gradientColor=#7ea6e0;fontStyle=1" parent="Vr7UqcTTEBcj6Jo24SEG-76" vertex="1">
          <mxGeometry x="10" y="30" width="30" height="26" as="geometry" />
        </mxCell>
        <mxCell id="Vr7UqcTTEBcj6Jo24SEG-78" value="IDA" style="ellipse;whiteSpace=wrap;html=1;fillColor=#dae8fc;strokeColor=#6c8ebf;gradientColor=#7ea6e0;fontStyle=1" parent="Vr7UqcTTEBcj6Jo24SEG-76" vertex="1">
          <mxGeometry x="10" y="131" width="30" height="26" as="geometry" />
        </mxCell>
        <mxCell id="Vr7UqcTTEBcj6Jo24SEG-79" value="HSM" style="ellipse;whiteSpace=wrap;html=1;fillColor=#dae8fc;strokeColor=#6c8ebf;gradientColor=#7ea6e0;fontStyle=1" parent="Vr7UqcTTEBcj6Jo24SEG-76" vertex="1">
          <mxGeometry x="10" y="91" width="30" height="26" as="geometry" />
        </mxCell>
        <mxCell id="Vr7UqcTTEBcj6Jo24SEG-80" value="KR" style="ellipse;whiteSpace=wrap;html=1;fillColor=#dae8fc;strokeColor=#6c8ebf;gradientColor=#7ea6e0;fontStyle=1" parent="Vr7UqcTTEBcj6Jo24SEG-76" vertex="1">
          <mxGeometry x="10" y="59" width="30" height="26" as="geometry" />
        </mxCell>
        <mxCell id="Vr7UqcTTEBcj6Jo24SEG-81" value="Key Manager" style="text;html=1;strokeColor=none;fillColor=none;align=center;verticalAlign=middle;whiteSpace=wrap;rounded=0;fontSize=14;" parent="Vr7UqcTTEBcj6Jo24SEG-76" vertex="1">
          <mxGeometry x="40" y="30" width="160" height="28" as="geometry" />
        </mxCell>
        <mxCell id="Vr7UqcTTEBcj6Jo24SEG-82" value="Key Revocation" style="text;html=1;strokeColor=none;fillColor=none;align=center;verticalAlign=middle;whiteSpace=wrap;rounded=0;fontSize=14;" parent="Vr7UqcTTEBcj6Jo24SEG-76" vertex="1">
          <mxGeometry x="40" y="58" width="160" height="28" as="geometry" />
        </mxCell>
        <mxCell id="Vr7UqcTTEBcj6Jo24SEG-83" value="Hardware Security Module" style="text;html=1;strokeColor=none;fillColor=none;align=center;verticalAlign=middle;whiteSpace=wrap;rounded=0;fontSize=14;" parent="Vr7UqcTTEBcj6Jo24SEG-76" vertex="1">
          <mxGeometry x="40" y="90" width="160" height="28" as="geometry" />
        </mxCell>
        <mxCell id="Vr7UqcTTEBcj6Jo24SEG-84" value="ID Authentication (DB)" style="text;html=1;strokeColor=none;fillColor=none;align=center;verticalAlign=middle;whiteSpace=wrap;rounded=0;fontSize=14;" parent="Vr7UqcTTEBcj6Jo24SEG-76" vertex="1">
          <mxGeometry x="40" y="130" width="160" height="28" as="geometry" />
        </mxCell>
        <mxCell id="Vr7UqcTTEBcj6Jo24SEG-85" value="AC" style="ellipse;whiteSpace=wrap;html=1;fillColor=#dae8fc;strokeColor=#6c8ebf;gradientColor=#7ea6e0;fontStyle=1" parent="Vr7UqcTTEBcj6Jo24SEG-76" vertex="1">
          <mxGeometry x="10" y="161" width="30" height="26" as="geometry" />
        </mxCell>
        <mxCell id="Vr7UqcTTEBcj6Jo24SEG-86" value="Access Control" style="text;html=1;strokeColor=none;fillColor=none;align=center;verticalAlign=middle;whiteSpace=wrap;rounded=0;fontSize=14;" parent="Vr7UqcTTEBcj6Jo24SEG-76" vertex="1">
          <mxGeometry x="40" y="160" width="160" height="28" as="geometry" />
        </mxCell>
        <mxCell id="Vr7UqcTTEBcj6Jo24SEG-87" value="Certificate Authority" style="text;html=1;strokeColor=none;fillColor=none;align=center;verticalAlign=middle;whiteSpace=wrap;rounded=0;fontSize=14;" parent="Vr7UqcTTEBcj6Jo24SEG-76" vertex="1">
          <mxGeometry x="40" y="190" width="160" height="28" as="geometry" />
        </mxCell>
        <mxCell id="Vr7UqcTTEBcj6Jo24SEG-88" value="CA" style="ellipse;whiteSpace=wrap;html=1;fillColor=#dae8fc;strokeColor=#6c8ebf;gradientColor=#7ea6e0;fontStyle=1" parent="Vr7UqcTTEBcj6Jo24SEG-76" vertex="1">
          <mxGeometry x="10" y="191" width="30" height="26" as="geometry" />
        </mxCell>
        <mxCell id="Vr7UqcTTEBcj6Jo24SEG-101" value="USER" style="shape=umlActor;verticalLabelPosition=bottom;verticalAlign=top;html=1;outlineConnect=0;fontStyle=1" parent="1" vertex="1">
          <mxGeometry x="100" y="217" width="30" height="60" as="geometry" />
        </mxCell>
        <mxCell id="Vr7UqcTTEBcj6Jo24SEG-111" value="" style="edgeStyle=orthogonalEdgeStyle;rounded=0;orthogonalLoop=1;jettySize=auto;html=1;exitX=0.46;exitY=0.988;exitDx=0;exitDy=0;entryX=0.5;entryY=0;entryDx=0;entryDy=0;fontSize=12;fontColor=#00CC00;strokeColor=#00CC00;strokeWidth=2;fontStyle=1;exitPerimeter=0;" parent="1" source="EU4dK8pHDv4Qe2f_EApd-9" target="Vr7UqcTTEBcj6Jo24SEG-109" edge="1">
          <mxGeometry relative="1" as="geometry">
            <Array as="points" />
            <mxPoint x="370" y="276" as="sourcePoint" />
            <mxPoint x="370" y="830" as="targetPoint" />
          </mxGeometry>
        </mxCell>
        <mxCell id="Vr7UqcTTEBcj6Jo24SEG-109" value="PASSWORD AUTHENTICATION&lt;br&gt;&lt;u&gt;B.1.4.1.A&lt;/u&gt;" style="rounded=0;whiteSpace=wrap;html=1;fontSize=12;strokeWidth=2;fontStyle=1;shape=label;fixedSize=1;" parent="1" vertex="1">
          <mxGeometry x="305" y="312" width="130" height="60" as="geometry" />
        </mxCell>
        <mxCell id="Vr7UqcTTEBcj6Jo24SEG-112" value="AC" style="ellipse;whiteSpace=wrap;html=1;fillColor=#dae8fc;strokeColor=#6c8ebf;gradientColor=#7ea6e0;fontStyle=1" parent="1" vertex="1">
          <mxGeometry x="320" y="820" width="30" height="26" as="geometry" />
        </mxCell>
        <mxCell id="Vr7UqcTTEBcj6Jo24SEG-115" style="edgeStyle=orthogonalEdgeStyle;rounded=0;orthogonalLoop=1;jettySize=auto;html=1;exitX=0.5;exitY=1;exitDx=0;exitDy=0;entryX=0;entryY=0.5;entryDx=0;entryDy=0;entryPerimeter=0;fontSize=12;strokeColor=#FF0000;fontColor=#00CC00;strokeWidth=2;fontStyle=1;" parent="1" source="EU4dK8pHDv4Qe2f_EApd-8" target="HW9NuAKg7_qNR3H8BCQF-7" edge="1">
          <mxGeometry relative="1" as="geometry" />
        </mxCell>
        <mxCell id="Vr7UqcTTEBcj6Jo24SEG-119" style="edgeStyle=orthogonalEdgeStyle;rounded=0;orthogonalLoop=1;jettySize=auto;html=1;exitX=1;exitY=0.5;exitDx=0;exitDy=0;fontSize=12;strokeColor=#00CC00;fontColor=#00CC00;strokeWidth=2;fontStyle=1;" parent="1" source="Vr7UqcTTEBcj6Jo24SEG-116" target="Vr7UqcTTEBcj6Jo24SEG-118" edge="1">
          <mxGeometry relative="1" as="geometry" />
        </mxCell>
        <mxCell id="Vr7UqcTTEBcj6Jo24SEG-116" value="AUTHENTICATE USING OTP&lt;br&gt;&lt;u&gt;B.2.4.1.B&lt;/u&gt;" style="rounded=0;whiteSpace=wrap;html=1;fontSize=12;strokeWidth=2;fontStyle=1;shape=label;fixedSize=1;" parent="1" vertex="1">
          <mxGeometry x="450" y="317" width="110" height="60" as="geometry" />
        </mxCell>
        <mxCell id="Vr7UqcTTEBcj6Jo24SEG-118" value="IF &lt;br&gt;OTP AUTH. SUICCESS" style="rounded=0;whiteSpace=wrap;html=1;fontSize=12;strokeWidth=2;fontStyle=1;shape=rhombus;perimeter=rhombusPerimeter;" parent="1" vertex="1">
          <mxGeometry x="560" y="830.36" width="120" height="60" as="geometry" />
        </mxCell>
        <mxCell id="Vr7UqcTTEBcj6Jo24SEG-120" value="AC" style="ellipse;whiteSpace=wrap;html=1;fillColor=#dae8fc;strokeColor=#6c8ebf;gradientColor=#7ea6e0;fontStyle=1" parent="1" vertex="1">
          <mxGeometry x="565" y="821.36" width="30" height="26" as="geometry" />
        </mxCell>
        <mxCell id="Vr7UqcTTEBcj6Jo24SEG-121" style="edgeStyle=orthogonalEdgeStyle;rounded=0;orthogonalLoop=1;jettySize=auto;html=1;exitX=0.5;exitY=1;exitDx=0;exitDy=0;entryX=0;entryY=0.5;entryDx=0;entryDy=0;entryPerimeter=0;fontSize=12;strokeColor=#FF0000;fontColor=#00CC00;strokeWidth=2;fontStyle=1;" parent="1" source="Vr7UqcTTEBcj6Jo24SEG-118" target="HW9NuAKg7_qNR3H8BCQF-7" edge="1">
          <mxGeometry relative="1" as="geometry" />
        </mxCell>
        <mxCell id="Vr7UqcTTEBcj6Jo24SEG-124" style="edgeStyle=orthogonalEdgeStyle;rounded=0;orthogonalLoop=1;jettySize=auto;html=1;exitX=0.5;exitY=0;exitDx=0;exitDy=0;entryX=0.5;entryY=1;entryDx=0;entryDy=0;fontSize=12;strokeColor=#00CC00;fontColor=#00CC00;strokeWidth=2;fontStyle=1;" parent="1" source="Vr7UqcTTEBcj6Jo24SEG-122" target="Vr7UqcTTEBcj6Jo24SEG-116" edge="1">
          <mxGeometry relative="1" as="geometry" />
        </mxCell>
        <mxCell id="Vr7UqcTTEBcj6Jo24SEG-122" value="GENERATE OTP&lt;br&gt;&lt;u&gt;B.2.4.1.A&lt;/u&gt;" style="rounded=0;whiteSpace=wrap;html=1;fontSize=12;strokeWidth=2;fontStyle=1;shape=label;fixedSize=1;" parent="1" vertex="1">
          <mxGeometry x="462.5" y="830.36" width="85" height="60" as="geometry" />
        </mxCell>
        <mxCell id="Vr7UqcTTEBcj6Jo24SEG-131" value="" style="group" parent="1" vertex="1" connectable="0">
          <mxGeometry x="826" y="553" width="150" height="78" as="geometry" />
        </mxCell>
        <mxCell id="Vr7UqcTTEBcj6Jo24SEG-126" value="MASK &amp;amp; ENCRYPT APPLICATION DETAILS&amp;nbsp;" style="rounded=0;whiteSpace=wrap;html=1;fontStyle=1;strokeWidth=2;" parent="Vr7UqcTTEBcj6Jo24SEG-131" vertex="1">
          <mxGeometry x="30" y="9" width="120" height="60" as="geometry" />
        </mxCell>
        <mxCell id="Vr7UqcTTEBcj6Jo24SEG-127" value="CA" style="ellipse;whiteSpace=wrap;html=1;fillColor=#dae8fc;strokeColor=#6c8ebf;gradientColor=#7ea6e0;fontStyle=1" parent="Vr7UqcTTEBcj6Jo24SEG-131" vertex="1">
          <mxGeometry y="52" width="30" height="26" as="geometry" />
        </mxCell>
        <mxCell id="Vr7UqcTTEBcj6Jo24SEG-128" value="HSM" style="ellipse;whiteSpace=wrap;html=1;fillColor=#dae8fc;strokeColor=#6c8ebf;gradientColor=#7ea6e0;fontStyle=1" parent="Vr7UqcTTEBcj6Jo24SEG-131" vertex="1">
          <mxGeometry y="26" width="30" height="26" as="geometry" />
        </mxCell>
        <mxCell id="Vr7UqcTTEBcj6Jo24SEG-129" value="KM" style="ellipse;whiteSpace=wrap;html=1;fillColor=#dae8fc;strokeColor=#6c8ebf;gradientColor=#7ea6e0;fontStyle=1" parent="Vr7UqcTTEBcj6Jo24SEG-131" vertex="1">
          <mxGeometry width="30" height="26" as="geometry" />
        </mxCell>
        <mxCell id="Vr7UqcTTEBcj6Jo24SEG-132" style="edgeStyle=orthogonalEdgeStyle;rounded=0;orthogonalLoop=1;jettySize=auto;html=1;exitX=0.5;exitY=1;exitDx=0;exitDy=0;fontSize=12;strokeColor=#00CC00;fontColor=#00CC00;strokeWidth=2;fontStyle=1;entryX=0.5;entryY=0;entryDx=0;entryDy=0;" parent="1" source="Vr7UqcTTEBcj6Jo24SEG-126" target="4-xq8rvhNILmO-q2wV9P-1" edge="1">
          <mxGeometry relative="1" as="geometry">
            <Array as="points">
              <mxPoint x="916" y="680" />
              <mxPoint x="835" y="680" />
            </Array>
          </mxGeometry>
        </mxCell>
        <mxCell id="Vr7UqcTTEBcj6Jo24SEG-133" value="IDA" style="ellipse;whiteSpace=wrap;html=1;fillColor=#dae8fc;strokeColor=#6c8ebf;gradientColor=#7ea6e0;fontStyle=1" parent="1" vertex="1">
          <mxGeometry x="839.5" y="863.36" width="30" height="26" as="geometry" />
        </mxCell>
        <mxCell id="Vr7UqcTTEBcj6Jo24SEG-134" value="HSM" style="ellipse;whiteSpace=wrap;html=1;fillColor=#dae8fc;strokeColor=#6c8ebf;gradientColor=#7ea6e0;fontStyle=1" parent="1" vertex="1">
          <mxGeometry x="809.5" y="924" width="30" height="26" as="geometry" />
        </mxCell>
        <mxCell id="Vr7UqcTTEBcj6Jo24SEG-135" value="KM" style="ellipse;whiteSpace=wrap;html=1;fillColor=#dae8fc;strokeColor=#6c8ebf;gradientColor=#7ea6e0;fontStyle=1" parent="1" vertex="1">
          <mxGeometry x="808.5" y="890.36" width="30" height="26" as="geometry" />
        </mxCell>
        <mxCell id="Vr7UqcTTEBcj6Jo24SEG-136" value="NOTIFICATION GENERATOR" style="rounded=0;whiteSpace=wrap;html=1;fontStyle=1;strokeWidth=2;fontSize=11;fillColor=default;strokeColor=default;" parent="1" vertex="1">
          <mxGeometry x="1080" y="800.36" width="190" height="30" as="geometry" />
        </mxCell>
        <mxCell id="Vr7UqcTTEBcj6Jo24SEG-143" style="edgeStyle=orthogonalEdgeStyle;rounded=0;orthogonalLoop=1;jettySize=auto;html=1;exitX=0.5;exitY=0;exitDx=0;exitDy=0;fontSize=12;strokeColor=#00CC00;fontColor=#00CC00;strokeWidth=2;fontStyle=1;" parent="1" source="Vr7UqcTTEBcj6Jo24SEG-137" target="Vr7UqcTTEBcj6Jo24SEG-146" edge="1">
          <mxGeometry relative="1" as="geometry" />
        </mxCell>
        <mxCell id="Vr7UqcTTEBcj6Jo24SEG-137" value="RECEIVE NEW APPLICATION INITIATED NOTIFICATION WITH RID" style="rounded=0;whiteSpace=wrap;html=1;fontSize=12;strokeWidth=2;fontStyle=1" parent="1" vertex="1">
          <mxGeometry x="1030" y="267" width="150" height="80" as="geometry" />
        </mxCell>
        <mxCell id="Vr7UqcTTEBcj6Jo24SEG-142" style="edgeStyle=orthogonalEdgeStyle;rounded=0;orthogonalLoop=1;jettySize=auto;html=1;exitX=0.5;exitY=0;exitDx=0;exitDy=0;fontSize=12;strokeColor=#00CC00;fontColor=#00CC00;strokeWidth=2;fontStyle=1;" parent="1" source="Vr7UqcTTEBcj6Jo24SEG-138" target="Vr7UqcTTEBcj6Jo24SEG-146" edge="1">
          <mxGeometry relative="1" as="geometry" />
        </mxCell>
        <mxCell id="Vr7UqcTTEBcj6Jo24SEG-138" value="RECEIVE NEW APPLICATION FAILURE NOTIFICATION WITH ERROR MESSAGE" style="rounded=0;whiteSpace=wrap;html=1;fontSize=12;strokeWidth=2;fontStyle=1" parent="1" vertex="1">
          <mxGeometry x="1185" y="267" width="150" height="80" as="geometry" />
        </mxCell>
        <mxCell id="Vr7UqcTTEBcj6Jo24SEG-149" value="" style="edgeStyle=orthogonalEdgeStyle;rounded=0;orthogonalLoop=1;jettySize=auto;html=1;fontSize=12;strokeColor=#FF0000;fontColor=#00CC00;strokeWidth=2;fontStyle=1;" parent="1" source="Vr7UqcTTEBcj6Jo24SEG-140" target="Vr7UqcTTEBcj6Jo24SEG-141" edge="1">
          <mxGeometry relative="1" as="geometry" />
        </mxCell>
        <mxCell id="Vr7UqcTTEBcj6Jo24SEG-151" style="edgeStyle=orthogonalEdgeStyle;rounded=0;orthogonalLoop=1;jettySize=auto;html=1;exitX=1;exitY=0.5;exitDx=0;exitDy=0;entryX=0;entryY=0.5;entryDx=0;entryDy=0;fontSize=12;strokeColor=#00CC00;fontColor=#00CC00;strokeWidth=2;fontStyle=1;" parent="1" source="Vr7UqcTTEBcj6Jo24SEG-140" target="Vr7UqcTTEBcj6Jo24SEG-145" edge="1">
          <mxGeometry relative="1" as="geometry" />
        </mxCell>
        <mxCell id="Vr7UqcTTEBcj6Jo24SEG-140" value="IF APPLY &lt;br&gt;FOR SELF" style="rounded=0;whiteSpace=wrap;html=1;fontSize=12;strokeWidth=2;fontStyle=1;shape=rhombus;perimeter=rhombusPerimeter;" parent="1" vertex="1">
          <mxGeometry x="1390" y="312" width="120" height="60" as="geometry" />
        </mxCell>
        <mxCell id="Vr7UqcTTEBcj6Jo24SEG-153" value="" style="edgeStyle=orthogonalEdgeStyle;rounded=0;orthogonalLoop=1;jettySize=auto;html=1;fontSize=12;strokeColor=#00CC00;fontColor=#00CC00;strokeWidth=2;fontStyle=1;" parent="1" source="Vr7UqcTTEBcj6Jo24SEG-141" target="Vr7UqcTTEBcj6Jo24SEG-150" edge="1">
          <mxGeometry relative="1" as="geometry" />
        </mxCell>
        <mxCell id="Vr7UqcTTEBcj6Jo24SEG-155" style="edgeStyle=orthogonalEdgeStyle;rounded=0;orthogonalLoop=1;jettySize=auto;html=1;exitX=0.5;exitY=0;exitDx=0;exitDy=0;entryX=0;entryY=0.5;entryDx=0;entryDy=0;fontSize=12;strokeColor=#FF0000;fontColor=#00CC00;strokeWidth=2;fontStyle=1;" parent="1" source="Vr7UqcTTEBcj6Jo24SEG-141" target="Vr7UqcTTEBcj6Jo24SEG-154" edge="1">
          <mxGeometry relative="1" as="geometry" />
        </mxCell>
        <mxCell id="Vr7UqcTTEBcj6Jo24SEG-141" value="IF &lt;br&gt;PARENT OR GUARDIAN" style="rounded=0;whiteSpace=wrap;html=1;fontSize=12;strokeWidth=2;fontStyle=1;shape=rhombus;perimeter=rhombusPerimeter;" parent="1" vertex="1">
          <mxGeometry x="1390" y="224.5" width="120" height="60" as="geometry" />
        </mxCell>
        <mxCell id="Vr7UqcTTEBcj6Jo24SEG-148" style="edgeStyle=orthogonalEdgeStyle;rounded=0;orthogonalLoop=1;jettySize=auto;html=1;exitX=1;exitY=0.5;exitDx=0;exitDy=0;exitPerimeter=0;entryX=0.5;entryY=1;entryDx=0;entryDy=0;fontSize=12;strokeColor=#00CC00;fontColor=#00CC00;strokeWidth=2;fontStyle=1;" parent="1" source="Vr7UqcTTEBcj6Jo24SEG-146" target="Vr7UqcTTEBcj6Jo24SEG-140" edge="1">
          <mxGeometry relative="1" as="geometry">
            <Array as="points">
              <mxPoint x="1450" y="945" />
            </Array>
          </mxGeometry>
        </mxCell>
        <mxCell id="Vr7UqcTTEBcj6Jo24SEG-145" value="PROCEED TO APPLICATION:&lt;br&gt;&lt;u&gt;A.1.4.1.C&lt;/u&gt;" style="rounded=0;whiteSpace=wrap;html=1;fontSize=12;strokeWidth=2;fontStyle=1" parent="1" vertex="1">
          <mxGeometry x="1550" y="318" width="120" height="48" as="geometry" />
        </mxCell>
        <mxCell id="Vr7UqcTTEBcj6Jo24SEG-146" value="LOGS THE PROCESS AND STATUS" style="rounded=0;whiteSpace=wrap;html=1;fontStyle=1;strokeWidth=2;shape=label;boundedLbl=1;backgroundOutline=1;size=15;" parent="1" vertex="1">
          <mxGeometry x="1310" y="920" width="130" height="50" as="geometry" />
        </mxCell>
        <mxCell id="Vr7UqcTTEBcj6Jo24SEG-147" value="IDA" style="ellipse;whiteSpace=wrap;html=1;fillColor=#dae8fc;strokeColor=#6c8ebf;gradientColor=#7ea6e0;fontStyle=1" parent="1" vertex="1">
          <mxGeometry x="1310" y="894" width="30" height="26" as="geometry" />
        </mxCell>
        <mxCell id="Vr7UqcTTEBcj6Jo24SEG-91" value="" style="group" parent="1" vertex="1" connectable="0">
          <mxGeometry x="70" y="407" width="1770" height="60" as="geometry" />
        </mxCell>
        <mxCell id="Vr7UqcTTEBcj6Jo24SEG-92" value="" style="group" parent="Vr7UqcTTEBcj6Jo24SEG-91" vertex="1" connectable="0">
          <mxGeometry y="20" width="1770" height="40" as="geometry" />
        </mxCell>
        <mxCell id="Vr7UqcTTEBcj6Jo24SEG-93" value="&lt;b&gt;SINGLE/ DUAL FIREWALL&lt;/b&gt;" style="shape=label;whiteSpace=wrap;html=1;boundedLbl=1;backgroundOutline=1;darkOpacity=0.05;darkOpacity2=0.1;fillColor=#e51400;fontColor=#ffffff;strokeColor=#B20000;rounded=0;" parent="Vr7UqcTTEBcj6Jo24SEG-92" vertex="1">
          <mxGeometry width="1770" height="20" as="geometry" />
        </mxCell>
        <mxCell id="Vr7UqcTTEBcj6Jo24SEG-94" value="&lt;b&gt;IDS, IPS, HONEYPOT&lt;/b&gt;" style="shape=label;whiteSpace=wrap;html=1;boundedLbl=1;backgroundOutline=1;darkOpacity=0.05;darkOpacity2=0.1;fillColor=#f0a30a;strokeColor=#BD7000;rounded=0;fontColor=#000000;" parent="Vr7UqcTTEBcj6Jo24SEG-92" vertex="1">
          <mxGeometry y="20" width="1770" height="20" as="geometry" />
        </mxCell>
        <mxCell id="Vr7UqcTTEBcj6Jo24SEG-95" value="API/ HTTPS (SSL/TLS)" style="shape=label;whiteSpace=wrap;html=1;boundedLbl=1;backgroundOutline=1;darkOpacity=0.05;darkOpacity2=0.1;fillColor=#f8cecc;strokeColor=#b85450;rounded=0;fontStyle=1" parent="Vr7UqcTTEBcj6Jo24SEG-91" vertex="1">
          <mxGeometry width="1770" height="20" as="geometry" />
        </mxCell>
        <mxCell id="Vr7UqcTTEBcj6Jo24SEG-102" value="" style="group" parent="1" vertex="1" connectable="0">
          <mxGeometry x="70" y="717" width="1770" height="60" as="geometry" />
        </mxCell>
        <mxCell id="Vr7UqcTTEBcj6Jo24SEG-103" value="" style="group" parent="Vr7UqcTTEBcj6Jo24SEG-102" vertex="1" connectable="0">
          <mxGeometry y="20" width="1770" height="40" as="geometry" />
        </mxCell>
        <mxCell id="Vr7UqcTTEBcj6Jo24SEG-104" value="&lt;b&gt;SINGLE/ DUAL FIREWALL&lt;/b&gt;" style="shape=label;whiteSpace=wrap;html=1;boundedLbl=1;backgroundOutline=1;darkOpacity=0.05;darkOpacity2=0.1;fillColor=#e51400;fontColor=#ffffff;strokeColor=#B20000;rounded=0;" parent="Vr7UqcTTEBcj6Jo24SEG-103" vertex="1">
          <mxGeometry width="1770" height="20" as="geometry" />
        </mxCell>
        <mxCell id="Vr7UqcTTEBcj6Jo24SEG-105" value="&lt;b&gt;IDS, IPS, HONEYPOT&lt;/b&gt;" style="shape=label;whiteSpace=wrap;html=1;boundedLbl=1;backgroundOutline=1;darkOpacity=0.05;darkOpacity2=0.1;fillColor=#f0a30a;strokeColor=#BD7000;rounded=0;fontColor=#000000;" parent="Vr7UqcTTEBcj6Jo24SEG-103" vertex="1">
          <mxGeometry y="20" width="1770" height="20" as="geometry" />
        </mxCell>
        <mxCell id="Vr7UqcTTEBcj6Jo24SEG-106" value="API/ HTTPS (SSL/TLS)" style="shape=label;whiteSpace=wrap;html=1;boundedLbl=1;backgroundOutline=1;darkOpacity=0.05;darkOpacity2=0.1;fillColor=#f8cecc;strokeColor=#b85450;rounded=0;fontStyle=1" parent="Vr7UqcTTEBcj6Jo24SEG-102" vertex="1">
          <mxGeometry width="1770" height="20" as="geometry" />
        </mxCell>
        <mxCell id="Vr7UqcTTEBcj6Jo24SEG-157" style="edgeStyle=orthogonalEdgeStyle;rounded=0;orthogonalLoop=1;jettySize=auto;html=1;exitX=1;exitY=0.5;exitDx=0;exitDy=0;fontSize=12;strokeColor=#00CC00;fontColor=#00CC00;strokeWidth=2;fontStyle=1;" parent="1" source="Vr7UqcTTEBcj6Jo24SEG-150" target="Vr7UqcTTEBcj6Jo24SEG-37" edge="1">
          <mxGeometry relative="1" as="geometry" />
        </mxCell>
        <mxCell id="Vr7UqcTTEBcj6Jo24SEG-150" value="PROCEED TO APPLICATION:&lt;br&gt;&lt;u&gt;A.1.4.1.D&lt;/u&gt;" style="rounded=0;whiteSpace=wrap;html=1;fontSize=12;strokeWidth=2;fontStyle=1" parent="1" vertex="1">
          <mxGeometry x="1550" y="230.5" width="120" height="48" as="geometry" />
        </mxCell>
        <mxCell id="Vr7UqcTTEBcj6Jo24SEG-158" style="edgeStyle=orthogonalEdgeStyle;rounded=0;orthogonalLoop=1;jettySize=auto;html=1;exitX=1;exitY=0.5;exitDx=0;exitDy=0;fontSize=12;strokeColor=#00CC00;fontColor=#00CC00;strokeWidth=2;fontStyle=1;" parent="1" source="Vr7UqcTTEBcj6Jo24SEG-154" target="Vr7UqcTTEBcj6Jo24SEG-37" edge="1">
          <mxGeometry relative="1" as="geometry" />
        </mxCell>
        <mxCell id="Vr7UqcTTEBcj6Jo24SEG-154" value="PROCEED TO APPLICATION:&lt;br&gt;&lt;u&gt;A.1.4.1.E&lt;/u&gt;" style="rounded=0;whiteSpace=wrap;html=1;fontSize=12;strokeWidth=2;fontStyle=1" parent="1" vertex="1">
          <mxGeometry x="1550" y="170" width="120" height="48" as="geometry" />
        </mxCell>
        <mxCell id="4-xq8rvhNILmO-q2wV9P-2" style="edgeStyle=orthogonalEdgeStyle;rounded=0;orthogonalLoop=1;jettySize=auto;html=1;exitX=1;exitY=0.5;exitDx=0;exitDy=0;fontSize=12;strokeColor=#00CC00;fontColor=#00CC00;strokeWidth=2;fontStyle=1;entryX=0.5;entryY=0;entryDx=0;entryDy=0;" parent="1" source="4-xq8rvhNILmO-q2wV9P-1" target="EU4dK8pHDv4Qe2f_EApd-19" edge="1">
          <mxGeometry relative="1" as="geometry">
            <Array as="points">
              <mxPoint x="916" y="825" />
            </Array>
            <mxPoint x="838.5" y="825.5400000000003" as="sourcePoint" />
            <mxPoint x="854.5000000000002" y="890.36" as="targetPoint" />
          </mxGeometry>
        </mxCell>
        <mxCell id="4-xq8rvhNILmO-q2wV9P-1" value="CREATE NEW RID FOR THE APPLICATION" style="rounded=0;whiteSpace=wrap;html=1;fontSize=12;strokeWidth=2;fontStyle=1;shape=label;fixedSize=1;" parent="1" vertex="1">
          <mxGeometry x="770" y="800.36" width="130" height="49.64" as="geometry" />
        </mxCell>
        <mxCell id="HDynM8mn4Trp-Rg1g0gl-1" value="&lt;div style=&quot;font-size: 18px;&quot;&gt;&lt;font style=&quot;font-size: 18px;&quot;&gt;&lt;b style=&quot;font-size: 18px;&quot;&gt;Purpose:&lt;/b&gt;&lt;/font&gt;&lt;/div&gt;&lt;div style=&quot;font-size: 18px;&quot;&gt;&lt;div&gt;This SOP outlines the steps required to start an online application for a digital identity.&lt;/div&gt;&lt;div&gt;It likely involves login procedures, OTP authentication, and the initiation of new application requests with subsequent confirmations or error handling.&lt;/div&gt;&lt;/div&gt;" style="whiteSpace=wrap;html=1;align=left;rounded=0;strokeWidth=2;verticalAlign=middle;fontFamily=Helvetica;fontSize=18;fontStyle=0;" vertex="1" parent="1">
          <mxGeometry x="50" y="37" width="1810" height="70" as="geometry" />
        </mxCell>
      </root>
    </mxGraphModel>
  </diagram>
</mxfile>
